<svg version="1.1" xmlns="http://www.w3.org/2000/svg" xmlns:xlink="http://www.w3.org/1999/xlink" width="489.36092" height="116.99461" viewBox="0,0,489.36092,116.99461"><g transform="translate(-75.36443,-97.27889)"><g stroke-miterlimit="10"><text transform="translate(77.07367,141.7192) scale(0.97671,0.97671)" font-size="40" xml:space="preserve" fill="#000000" stroke="none" stroke-width="1" stroke-linecap="butt" font-family="&quot;SpongeBoy&quot;, Sans Serif" font-weight="normal" text-anchor="start"><tspan x="0" dy="0">NUMBER COUNTER FOR</tspan></text><g><path d="M368.24168,180c0,18.92874 -15.2888,34.2735 -34.1485,34.2735c-18.8597,0 -34.1485,-15.34477 -34.1485,-34.2735c0,-18.92874 15.2888,-34.2735 34.1485,-34.2735c18.8597,0 34.1485,15.34477 34.1485,34.2735z" fill="#000000" stroke="none" stroke-width="0" stroke-linecap="butt"/><text transform="translate(95.03053,184.89916) scale(0.5,0.5)" font-size="40" xml:space="preserve" fill="#000000" stroke="none" stroke-width="1" stroke-linecap="butt" font-family="&quot;SpongeBoy&quot;, Sans Serif" font-weight="normal" text-anchor="start"><tspan x="0" dy="0">THE UNTILIED SPO </tspan></text><text transform="translate(293.78916,186.76123) scale(0.5,0.5)" font-size="40" xml:space="preserve" fill="#f8f8f8" stroke="none" stroke-width="1" stroke-linecap="butt" font-family="&quot;SpongeBoy&quot;, Sans Serif" font-weight="normal" text-anchor="start"><tspan x="0" dy="0">NGEBO</tspan></text><path d="M293.34737,166.79356h5.65021l2.17316,5.67484l-0.97792,7.20268l-2.28182,-6.98442l0.21732,15.60581l-3.91169,0.10913l0.65195,-15.9332l-1.41255,-0.21826z" fill="#050505" stroke="#000000" stroke-width="0.5" stroke-linecap="round"/><text transform="translate(367.94952,186.83091) scale(0.5,0.5)" font-size="40" xml:space="preserve" fill="#000000" stroke="none" stroke-width="1" stroke-linecap="butt" font-family="&quot;SpongeBoy&quot;, Sans Serif" font-weight="normal" text-anchor="start"><tspan x="0" dy="0">B RUNNER GAME</tspan></text></g></g></g></svg>